<?xml version="1.0" encoding="utf-8"?>
<!-- Generator: Adobe Illustrator 27.5.0, SVG Export Plug-In . SVG Version: 6.00 Build 0)  -->
<svg version="1.1" xmlns="http://www.w3.org/2000/svg" xmlns:xlink="http://www.w3.org/1999/xlink" x="0px" y="0px"
	 viewBox="0 0 500 500" style="enable-background:new 0 0 500 500;" xml:space="preserve">
<g id="BACKGROUND">
	<g>
		<rect style="fill:#F9FBFC;" width="500" height="500"/>
	</g>
</g>
<g id="OBJECTS">
	<g>
		<g>
			<g>
				<g>
					<path style="fill:#1D262D;" d="M143.619,302.729c-1.376,0-2.502-1.104-2.524-2.485c-0.022-1.392,1.09-2.542,2.485-2.564
						c11.739-0.187,22.852-4.785,31.294-12.946c1.008-0.967,2.601-0.94,3.569,0.061c0.97,1.002,0.943,2.6-0.059,3.569
						c-9.368,9.053-21.701,14.154-34.725,14.363C143.646,302.729,143.632,302.729,143.619,302.729z"/>
				</g>
			</g>
			<g>
				<g>
					<path style="fill:#1D262D;" d="M142.031,205.458c-1.376,0-2.502-1.105-2.524-2.487c-0.02-1.394,1.092-2.541,2.487-2.561
						l0.231-0.013c0.199-0.015,0.398-0.027,0.601-0.027c1.394,0,2.524,1.13,2.524,2.524c0,1.394-1.13,2.524-2.524,2.524
						l-0.243,0.014c-0.172,0.012-0.341,0.023-0.515,0.026C142.057,205.458,142.043,205.458,142.031,205.458z"/>
				</g>
			</g>
			<g>
				<g>
					<path style="fill:#1D262D;" d="M94.149,254.095c-1.394,0-2.524-1.13-2.524-2.524c0-14.701,6.371-28.72,17.479-38.464
						c1.049-0.922,2.642-0.814,3.561,0.233c0.919,1.048,0.816,2.642-0.233,3.561c-10.015,8.787-15.759,21.423-15.759,34.67
						C96.674,252.965,95.544,254.095,94.149,254.095z"/>
				</g>
			</g>
			<g>
				<g>
					<path style="fill:#1D262D;" d="M142.031,302.729c-0.014,0-0.026,0-0.039,0c-13.026-0.209-25.357-5.31-34.723-14.363
						c-1.002-0.969-1.029-2.567-0.059-3.569c0.968-1.001,2.565-1.028,3.569-0.061c8.44,8.161,19.553,12.758,31.292,12.946
						c1.394,0.022,2.506,1.171,2.485,2.564C144.534,301.625,143.408,302.729,142.031,302.729z"/>
				</g>
			</g>
			<g>
				<g>
					<path style="fill:#1D262D;" d="M109.024,289.074c-0.631,0-1.264-0.236-1.755-0.709c-10.088-9.749-15.643-22.817-15.643-36.795
						c0-1.394,1.13-2.524,2.524-2.524c1.394,0,2.524,1.13,2.524,2.524c0,12.597,5.009,24.375,14.105,33.165
						c1.002,0.969,1.029,2.566,0.059,3.569C110.343,288.817,109.684,289.074,109.024,289.074z"/>
				</g>
			</g>
			<g>
				<g>
					<path style="fill:#1D262D;" d="M142.826,302.77c-0.209,0-0.414-0.014-0.619-0.028l-0.231-0.014
						c-1.394-0.032-2.498-1.187-2.469-2.579c0.032-1.374,1.156-2.469,2.522-2.469c0.02,0,0.039,0,0.057,0
						c0.166,0.004,0.327,0.016,0.489,0.028l0.25,0.014c1.394,0,2.524,1.13,2.524,2.524C145.35,301.64,144.22,302.77,142.826,302.77z
						"/>
				</g>
			</g>
			<g>
				<g>
					<path style="fill:#1D262D;" d="M142.826,302.77c-1.394,0-2.524-1.13-2.524-2.524c0-1.394,1.13-2.524,2.524-2.524l0.248-0.014
						c0.162-0.012,0.323-0.024,0.489-0.028c1.313,0.004,2.548,1.073,2.579,2.469c0.03,1.392-1.075,2.548-2.469,2.579l-0.229,0.014
						C143.24,302.756,143.035,302.77,142.826,302.77z"/>
				</g>
			</g>
			<g>
				<g>
					<path style="fill:#1D262D;" d="M174.879,217.528c-0.59,0-1.183-0.206-1.662-0.627c-8.211-7.203-18.737-11.268-29.64-11.443
						c-1.392-0.023-2.504-1.171-2.483-2.564c0.024-1.394,1.138-2.461,2.565-2.484c12.098,0.195,23.777,4.705,32.885,12.697
						c1.049,0.919,1.152,2.514,0.233,3.561C176.279,217.237,175.581,217.528,174.879,217.528z"/>
				</g>
			</g>
			<g>
				<g>
					<path style="fill:#1D262D;" d="M110.771,217.528c-0.702,0-1.4-0.291-1.899-0.86c-0.919-1.047-0.816-2.642,0.233-3.561
						c9.108-7.992,20.788-12.502,32.885-12.697c1.459-0.055,2.542,1.089,2.565,2.484c0.022,1.393-1.09,2.542-2.483,2.564
						c-10.903,0.176-21.429,4.24-29.64,11.443C111.954,217.322,111.36,217.528,110.771,217.528z"/>
				</g>
			</g>
			<g>
				<g>
					<path style="fill:#1D262D;" d="M143.619,205.458c-0.012,0-0.024,0-0.038,0c-0.173-0.003-0.343-0.014-0.515-0.026l-0.241-0.014
						c-1.394,0-2.524-1.13-2.524-2.524c0-1.394,1.13-2.524,2.524-2.524c0.203,0,0.402,0.012,0.601,0.027l0.229,0.013
						c1.394,0.021,2.506,1.167,2.487,2.561C146.121,204.352,144.995,205.458,143.619,205.458z"/>
				</g>
			</g>
			<g>
				<g>
					<path style="fill:#1D262D;" d="M176.628,289.074c-0.661,0-1.319-0.257-1.814-0.77c-0.97-1.003-0.943-2.6,0.059-3.569
						c9.094-8.788,14.103-20.566,14.103-33.165c0-13.247-5.744-25.883-15.76-34.67c-1.049-0.919-1.152-2.513-0.233-3.561
						c0.917-1.047,2.512-1.154,3.561-0.233c11.108,9.744,17.479,23.764,17.479,38.464c0,13.979-5.555,27.047-15.641,36.795
						C177.892,288.839,177.259,289.074,176.628,289.074z"/>
				</g>
			</g>
			<g>
				<g>
					<path style="fill:#1D262D;" d="M125.252,225.605c-0.414,0-0.834-0.102-1.223-0.318c-1.219-0.676-1.658-2.212-0.982-3.431
						c4.441-8.004,10.776-15.055,18.321-20.389c1.132-0.806,2.715-0.537,3.518,0.603c0.805,1.138,0.534,2.713-0.603,3.518
						c-6.929,4.9-12.746,11.373-16.822,18.717C126.999,225.136,126.14,225.605,125.252,225.605z"/>
				</g>
			</g>
			<g>
				<g>
					<path style="fill:#1D262D;" d="M142.828,206.051c-0.793,0-1.572-0.372-2.065-1.069c-0.803-1.139-0.532-2.713,0.607-3.517
						l0.28-0.212c0.175-0.137,0.353-0.273,0.536-0.399c1.15-0.793,2.719-0.501,3.51,0.648c0.791,1.149,0.501,2.72-0.647,3.511
						c-0.104,0.072-0.205,0.151-0.306,0.229c-0.154,0.119-0.306,0.237-0.463,0.347C143.84,205.901,143.331,206.051,142.828,206.051z
						"/>
				</g>
			</g>
			<g>
				<g>
					<path style="fill:#1D262D;" d="M123.961,280.009c-0.931,0-1.828-0.518-2.266-1.41c-4.204-8.538-6.336-17.632-6.336-27.028
						c0-1.394,1.13-2.524,2.524-2.524c1.394,0,2.524,1.13,2.524,2.524c0,8.616,1.956,16.959,5.815,24.798
						c0.617,1.251,0.103,2.764-1.15,3.38C124.716,279.925,124.335,280.009,123.961,280.009z"/>
				</g>
			</g>
			<g>
				<g>
					<path style="fill:#1D262D;" d="M143.617,302.729c-0.487,0-0.978-0.14-1.412-0.434c-0.195-0.132-0.383-0.274-0.568-0.418
						l-0.266-0.201c-1.14-0.805-1.41-2.38-0.607-3.518c0.807-1.138,2.38-1.41,3.518-0.607c0.154,0.108,0.302,0.223,0.45,0.337
						c0.099,0.077,0.197,0.156,0.302,0.227c1.156,0.781,1.457,2.349,0.676,3.504C145.222,302.34,144.427,302.729,143.617,302.729z"
						/>
				</g>
			</g>
			<g>
				<g>
					<path style="fill:#1D262D;" d="M142.824,302.137c-0.505,0-1.014-0.15-1.455-0.463c-8.349-5.904-15.152-13.883-19.676-23.076
						c-0.615-1.25-0.099-2.764,1.152-3.379c1.25-0.616,2.763-0.1,3.38,1.151c4.151,8.44,10.396,15.764,18.059,21.183
						c1.138,0.805,1.408,2.38,0.603,3.518C144.396,301.767,143.615,302.137,142.824,302.137z"/>
				</g>
			</g>
			<g>
				<g>
					<path style="fill:#1D262D;" d="M117.883,254.095c-1.394,0-2.524-1.13-2.524-2.524c0-10.371,2.658-20.647,7.688-29.715
						c0.672-1.219,2.213-1.658,3.431-0.983c1.219,0.676,1.658,2.212,0.982,3.432c-4.614,8.32-7.054,17.748-7.054,27.266
						C120.407,252.965,119.277,254.095,117.883,254.095z"/>
				</g>
			</g>
			<g>
				<g>
					<path style="fill:#1D262D;" d="M125.254,225.606c-0.286,0-0.576-0.049-0.862-0.152c-5.537-2.009-10.648-4.861-15.195-8.474
						c-1.09-0.868-1.272-2.455-0.404-3.546c0.87-1.091,2.455-1.271,3.548-0.405c4.117,3.273,8.751,5.858,13.776,7.68
						c1.309,0.476,1.986,1.924,1.51,3.234C127.254,224.968,126.286,225.606,125.254,225.606z"/>
				</g>
			</g>
			<g>
				<g>
					<path style="fill:#1D262D;" d="M160.396,225.606c-1.031,0-1.999-0.638-2.372-1.664c-0.475-1.31,0.201-2.758,1.51-3.234
						c5.024-1.822,9.658-4.406,13.776-7.68c1.094-0.867,2.68-0.686,3.547,0.405c0.868,1.091,0.686,2.679-0.404,3.546
						c-4.547,3.614-9.658,6.465-15.195,8.474C160.971,225.556,160.682,225.606,160.396,225.606z"/>
				</g>
			</g>
			<g>
				<g>
					<path style="fill:#1D262D;" d="M142.826,228.74c-1.394,0-2.524-1.13-2.524-2.524c0-1.394,1.13-2.524,2.524-2.524
						c5.628,0,11.25-1.004,16.71-2.984c1.307-0.473,2.759,0.202,3.232,1.512c0.475,1.31-0.201,2.759-1.512,3.234
						C155.243,227.635,149.041,228.74,142.826,228.74z"/>
				</g>
			</g>
			<g>
				<g>
					<path style="fill:#1D262D;" d="M142.826,228.74c-6.217,0-12.419-1.105-18.431-3.286c-1.311-0.475-1.988-1.924-1.512-3.234
						c0.473-1.31,1.924-1.986,3.232-1.512c5.46,1.981,11.084,2.984,16.712,2.984c1.394,0,2.524,1.13,2.524,2.524
						C145.35,227.61,144.22,228.74,142.826,228.74z"/>
				</g>
			</g>
			<g>
				<g>
					<path style="fill:#1D262D;" d="M176.626,289.074c-0.586,0-1.175-0.204-1.654-0.619c-4.226-3.675-9.006-6.576-14.206-8.623
						c-1.298-0.511-1.934-1.976-1.424-3.273c0.509-1.297,1.974-1.931,3.273-1.424c5.734,2.258,11.007,5.458,15.669,9.51
						c1.051,0.915,1.163,2.509,0.249,3.561C178.034,288.78,177.332,289.074,176.626,289.074z"/>
				</g>
			</g>
			<g>
				<g>
					<path style="fill:#1D262D;" d="M161.691,280.009c-0.308,0-0.621-0.057-0.925-0.177c-5.79-2.278-11.826-3.433-17.94-3.433
						c-1.394,0-2.524-1.13-2.524-2.524c0-1.394,1.13-2.524,2.524-2.524c6.75,0,13.409,1.273,19.79,3.784
						c1.296,0.51,1.934,1.976,1.424,3.272C163.649,279.401,162.697,280.009,161.691,280.009z"/>
				</g>
			</g>
			<g>
				<g>
					<path style="fill:#1D262D;" d="M123.959,280.009c-1.006,0-1.958-0.607-2.348-1.601c-0.511-1.296,0.128-2.763,1.424-3.272
						c6.381-2.511,13.04-3.784,19.792-3.784c1.394,0,2.524,1.13,2.524,2.524c0,1.394-1.13,2.524-2.524,2.524
						c-6.117,0-12.153,1.156-17.942,3.433C124.58,279.951,124.266,280.009,123.959,280.009z"/>
				</g>
			</g>
			<g>
				<g>
					<path style="fill:#1D262D;" d="M109.026,289.074c-0.706,0-1.408-0.294-1.907-0.868c-0.915-1.052-0.803-2.646,0.248-3.561
						c4.658-4.05,9.929-7.251,15.667-9.51c1.296-0.509,2.763,0.126,3.273,1.424c0.511,1.297-0.126,2.763-1.424,3.273
						c-5.202,2.049-9.982,4.949-14.204,8.623C110.203,288.87,109.611,289.074,109.026,289.074z"/>
				</g>
			</g>
			<g>
				<g>
					<path style="fill:#1D262D;" d="M167.767,254.095c-1.394,0-2.524-1.13-2.524-2.524c0-9.517-2.439-18.945-7.053-27.266
						c-0.676-1.22-0.237-2.756,0.982-3.432c1.221-0.675,2.757-0.236,3.431,0.983c5.03,9.068,7.688,19.343,7.688,29.715
						C170.291,252.965,169.161,254.095,167.767,254.095z"/>
				</g>
			</g>
			<g>
				<g>
					<path style="fill:#1D262D;" d="M142.824,206.051c-0.497,0-1-0.147-1.44-0.452c-0.169-0.118-0.331-0.243-0.495-0.369
						c-0.095-0.074-0.189-0.15-0.29-0.218c-1.148-0.791-1.438-2.362-0.647-3.511c0.789-1.149,2.358-1.439,3.51-0.648
						c0.178,0.123,0.349,0.254,0.521,0.387l0.284,0.213c1.144,0.797,1.426,2.369,0.631,3.514
						C144.408,205.673,143.623,206.051,142.824,206.051z"/>
				</g>
			</g>
			<g>
				<g>
					<path style="fill:#1D262D;" d="M142.033,302.729c-0.81,0-1.605-0.388-2.092-1.11c-0.781-1.155-0.479-2.723,0.676-3.504
						c0.099-0.067,0.193-0.142,0.288-0.215c0.158-0.122,0.316-0.245,0.479-0.359c1.148-0.795,2.717-0.515,3.514,0.631
						c0.795,1.144,0.513,2.717-0.631,3.514l-0.27,0.203c-0.179,0.14-0.363,0.278-0.552,0.406
						C143.011,302.589,142.52,302.729,142.033,302.729z"/>
				</g>
			</g>
			<g>
				<g>
					<path style="fill:#1D262D;" d="M161.689,280.009c-0.375,0-0.755-0.084-1.112-0.26c-1.252-0.616-1.767-2.129-1.15-3.38
						c3.859-7.838,5.815-16.181,5.815-24.798c0-1.394,1.13-2.524,2.524-2.524c1.394,0,2.524,1.13,2.524,2.524
						c0,9.396-2.132,18.49-6.336,27.028C163.517,279.491,162.62,280.009,161.689,280.009z"/>
				</g>
			</g>
			<g>
				<g>
					<path style="fill:#1D262D;" d="M142.828,302.137c-0.791,0-1.572-0.371-2.063-1.067c-0.805-1.138-0.534-2.713,0.603-3.518
						c7.661-5.42,13.906-12.744,18.057-21.183c0.617-1.252,2.13-1.767,3.38-1.151c1.25,0.615,1.767,2.129,1.152,3.379
						c-4.523,9.192-11.327,17.172-19.674,23.076C143.841,301.987,143.333,302.137,142.828,302.137z"/>
				</g>
			</g>
			<g>
				<g>
					<path style="fill:#1D262D;" d="M160.398,225.605c-0.887,0-1.749-0.468-2.208-1.299c-4.072-7.342-9.889-13.814-16.82-18.717
						c-1.138-0.805-1.408-2.38-0.603-3.518c0.805-1.141,2.384-1.409,3.518-0.603c7.546,5.338,13.882,12.388,18.319,20.389
						c0.676,1.22,0.237,2.756-0.982,3.432C161.232,225.503,160.812,225.605,160.398,225.605z"/>
				</g>
			</g>
			<g>
				<g>
					<path style="fill:#1D262D;" d="M117.883,254.095H94.149c-1.394,0-2.524-1.13-2.524-2.524c0-1.394,1.13-2.524,2.524-2.524
						h23.734c1.394,0,2.524,1.13,2.524,2.524C120.407,252.965,119.277,254.095,117.883,254.095z"/>
				</g>
			</g>
			<g>
				<g>
					<path style="fill:#1D262D;" d="M167.767,254.095h-24.941c-1.394,0-2.524-1.13-2.524-2.524c0-1.394,1.13-2.524,2.524-2.524
						h24.941c1.394,0,2.524,1.13,2.524,2.524C170.291,252.965,169.161,254.095,167.767,254.095z"/>
				</g>
			</g>
			<g>
				<g>
					<path style="fill:#1D262D;" d="M142.826,254.095h-24.943c-1.394,0-2.524-1.13-2.524-2.524c0-1.394,1.13-2.524,2.524-2.524
						h24.943c1.394,0,2.524,1.13,2.524,2.524C145.35,252.965,144.22,254.095,142.826,254.095z"/>
				</g>
			</g>
			<g>
				<g>
					<path style="fill:#1D262D;" d="M190.063,254.095h-22.296c-1.394,0-2.524-1.13-2.524-2.524c0-1.394,1.13-2.524,2.524-2.524
						h22.296c1.394,0,2.524,1.13,2.524,2.524C192.587,252.965,191.457,254.095,190.063,254.095z"/>
				</g>
			</g>
			<g>
				<g>
					<path style="fill:#1D262D;" d="M142.826,228.74c-1.394,0-2.524-1.13-2.524-2.524v-22.689c0-1.394,1.13-2.524,2.524-2.524
						c1.394,0,2.524,1.13,2.524,2.524v22.689C145.35,227.61,144.22,228.74,142.826,228.74z"/>
				</g>
			</g>
			<g>
				<g>
					<path style="fill:#1D262D;" d="M142.826,254.095c-1.394,0-2.524-1.13-2.524-2.524v-25.355c0-1.394,1.13-2.524,2.524-2.524
						c1.394,0,2.524,1.13,2.524,2.524v25.355C145.35,252.965,144.22,254.095,142.826,254.095z"/>
				</g>
			</g>
			<g>
				<g>
					<path style="fill:#1D262D;" d="M142.826,302.137c-1.394,0-2.524-1.13-2.524-2.524v-25.738c0-1.394,1.13-2.524,2.524-2.524
						c1.394,0,2.524,1.13,2.524,2.524v25.738C145.35,301.007,144.22,302.137,142.826,302.137z"/>
				</g>
			</g>
			<g>
				<g>
					<path style="fill:#1D262D;" d="M142.826,206.051c-1.394,0-2.524-1.13-2.524-2.524v-0.633c0-1.394,1.13-2.524,2.524-2.524
						c1.394,0,2.524,1.13,2.524,2.524v0.633C145.35,204.921,144.22,206.051,142.826,206.051z"/>
				</g>
			</g>
			<g>
				<g>
					<path style="fill:#1D262D;" d="M142.826,276.399c-1.394,0-2.524-1.13-2.524-2.524v-22.304c0-1.394,1.13-2.524,2.524-2.524
						c1.394,0,2.524,1.13,2.524,2.524v22.304C145.35,275.269,144.22,276.399,142.826,276.399z"/>
				</g>
			</g>
			<g>
				<g>
					<path style="fill:#1D262D;" d="M142.826,302.77c-1.394,0-2.524-1.13-2.524-2.524v-0.633c0-1.394,1.13-2.524,2.524-2.524
						c1.394,0,2.524,1.13,2.524,2.524v0.633C145.35,301.64,144.22,302.77,142.826,302.77z"/>
				</g>
			</g>
		</g>
		<g>
			<path style="fill:#F9FBFC;" d="M404.658,272.196h-220.82c-3.176,0-5.774-2.598-5.774-5.774v-34.653
				c0-3.176,2.598-5.774,5.774-5.774h220.82c3.176,0,5.774,2.598,5.774,5.774v34.653
				C410.433,269.598,407.834,272.196,404.658,272.196z"/>
			<path style="fill:#1D262D;" d="M404.658,274.696h-220.82c-4.563,0-8.274-3.712-8.274-8.274v-34.654
				c0-4.562,3.712-8.274,8.274-8.274h220.82c4.563,0,8.274,3.712,8.274,8.274v34.654
				C412.933,270.984,409.221,274.696,404.658,274.696z M183.838,228.494c-1.806,0-3.274,1.469-3.274,3.274v34.654
				c0,1.806,1.469,3.274,3.274,3.274h220.82c1.806,0,3.274-1.469,3.274-3.274v-34.654c0-1.805-1.469-3.274-3.274-3.274H183.838z"/>
		</g>
	</g>
	<g>
		<g>
			<polygon style="fill:#1D262D;" points="405.785,288.371 369.238,258.29 375.195,305.249 385.957,299.31 396.005,317.522 
				405.07,312.522 395.022,294.31 			"/>
			<path style="fill:#F9FBFC;" d="M396.01,322.522c-1.763,0-3.472-0.934-4.383-2.586l-7.632-13.833l-6.386,3.524
				c-1.448,0.801-3.202,0.83-4.681,0.079c-1.477-0.75-2.486-2.184-2.694-3.828l-5.957-46.959c-0.258-2.032,0.75-4.017,2.545-5.007
				c1.794-0.99,4.011-0.785,5.593,0.518l36.548,30.081c1.279,1.053,1.953,2.671,1.801,4.321c-0.152,1.649-1.112,3.116-2.564,3.917
				l-6.385,3.523l7.633,13.835c0.641,1.161,0.794,2.529,0.426,3.803c-0.368,1.274-1.228,2.35-2.389,2.99l-9.065,5
				C397.654,322.322,396.826,322.522,396.01,322.522z M385.957,294.31c0.466,0,0.933,0.065,1.388,0.196
				c1.273,0.368,2.35,1.228,2.99,2.389l7.633,13.833l0.309-0.17l-7.632-13.834c-1.334-2.417-0.455-5.459,1.963-6.793l4.314-2.38
				l-21.139-17.399l3.445,27.16l4.314-2.38C384.288,294.521,385.12,294.31,385.957,294.31z"/>
		</g>
		<g>
			<polygon style="fill:#1D262D;" points="405.785,288.371 369.238,258.29 375.195,305.249 385.957,299.31 396.005,317.522 
				405.07,312.522 395.022,294.31 			"/>
		</g>
	</g>
	<g>
		
			<text transform="matrix(1 0 0 1 232.5829 261.1976)" style="fill:#1D262D; font-family:'Montserrat-ExtraBold'; font-size:33.9157px; letter-spacing:1;">WWW</text>
	</g>
</g>
<g id="DESIGNED_BY_FREEPIK">
	<g>
		<g id="XMLID_197_">
			<g id="XMLID_216_">
				<path id="XMLID_224_" style="fill:#1D262D;" d="M260.104,465.328c-0.432,0.443-0.803,0.931-1.108,1.453l-0.465-0.241
					c-0.067-0.298-0.349-0.503-0.659-0.466c-0.331,0.039-0.568,0.339-0.529,0.67c0.039,0.331,0.339,0.568,0.67,0.529
					c0.065-0.008,0.127-0.026,0.184-0.052l0.451,0.234c-0.251,0.554-0.433,1.139-0.539,1.744l0.747,0.132
					c0.23-1.306,0.85-2.507,1.792-3.473L260.104,465.328z"/>
				<path id="XMLID_223_" style="fill:#1D262D;" d="M265.592,463.026c-0.171,0-0.341,0.006-0.51,0.017l-0.074-0.626
					c0.188-0.149,0.296-0.389,0.266-0.645c-0.046-0.393-0.402-0.674-0.795-0.628c-0.393,0.046-0.674,0.402-0.628,0.795
					c0.03,0.254,0.189,0.461,0.405,0.564l0.073,0.624c-0.714,0.116-1.403,0.332-2.06,0.646l0.327,0.684
					c0.934-0.447,1.942-0.673,2.995-0.673c0.496,0,0.993,0.053,1.475,0.158l0.161-0.741
					C266.692,463.085,266.142,463.026,265.592,463.026z"/>
				<path id="XMLID_222_" style="fill:#1D262D;" d="M272.194,465.574c0.331-0.04,0.566-0.341,0.526-0.672
					c-0.04-0.331-0.341-0.566-0.672-0.526c-0.309,0.038-0.535,0.304-0.53,0.609l-0.416,0.363c-0.418-0.43-0.89-0.813-1.408-1.139
					l-0.404,0.641c1.134,0.715,2.021,1.726,2.563,2.925l0.69-0.313c-0.251-0.554-0.567-1.072-0.942-1.545l0.402-0.351
					C272.065,465.579,272.129,465.582,272.194,465.574z"/>
				<path id="XMLID_221_" style="fill:#1D262D;" d="M265.044,473.235c-0.386,0.023-0.775,0.035-1.157,0.035
					c-0.88,0-1.733-0.061-2.478-0.179c-0.39-0.062-0.846-0.155-1.27-0.292c1.046,1.861,3.069,3.125,5.388,3.125
					c2.855,0,5.262-1.916,5.95-4.504c-0.682,0.449-1.505,0.825-2.459,1.123C267.839,472.91,266.463,473.15,265.044,473.235z"/>
				<path id="XMLID_217_" style="fill:#1D262D;" d="M265.592,464.543c-3.352,0-6.08,2.666-6.08,5.944
					c0,0.425,0.046,0.849,0.137,1.261c0.673,0.483,2.706,0.89,5.348,0.731c2.879-0.173,5.297-0.957,6.672-2.159
					c-0.005-0.195-0.021-0.39-0.045-0.582C271.244,466.776,268.65,464.543,265.592,464.543z M263.432,471.057
					c-1.02,0-1.85-0.83-1.85-1.85c0-1.02,0.83-1.85,1.85-1.85c1.02,0,1.85,0.83,1.85,1.85
					C265.282,470.228,264.452,471.057,263.432,471.057z M268.17,470.149c-0.75,0-1.36-0.61-1.36-1.36s0.61-1.361,1.36-1.361
					c0.75,0,1.361,0.61,1.361,1.361S268.92,470.149,268.17,470.149z"/>
			</g>
			<path id="XMLID_214_" style="fill:#1D262D;" d="M281.595,466.41c-0.295-0.116-0.805-0.309-1.382-0.237
				c-0.551,0.069-0.844,0.341-0.844,1.007v0.866h2.228v1.717h-2.228v5.455h-1.932v-5.455h-1.34v-1.717h1.34v-0.888
				c0-1.68,0.896-2.783,2.568-2.783c0.643,0,1.157,0.122,1.59,0.308L281.595,466.41z"/>
			<path id="XMLID_212_" style="fill:#1D262D;" d="M286.298,469.742c-0.177-0.03-0.358-0.046-0.526-0.046
				c-0.896,0-1.51,0.548-1.51,1.614v3.908h-1.932v-7.172h1.873v0.785c0.451-0.673,1.14-0.977,2.021-0.977
				c0.414,0,0.848,0.128,1.094,0.337L286.298,469.742z"/>
			<path id="XMLID_209_" style="fill:#1D262D;" d="M293.965,471.62c0,0.222-0.015,0.489-0.037,0.651h-5.085
				c0.207,1.036,0.933,1.488,1.843,1.488c0.622,0,1.295-0.252,1.813-0.688l1.133,1.243c-0.814,0.748-1.85,1.088-3.057,1.088
				c-2.198,0-3.723-1.495-3.723-3.753c0-2.258,1.48-3.797,3.626-3.797C292.544,467.853,293.958,469.385,293.965,471.62z
				 M288.851,470.954h3.175c-0.177-0.918-0.733-1.436-1.562-1.436C289.554,469.518,289.021,470.066,288.851,470.954z"/>
			<path id="XMLID_206_" style="fill:#1D262D;" d="M301.618,471.62c0,0.222-0.015,0.489-0.037,0.651h-5.085
				c0.207,1.036,0.933,1.488,1.843,1.488c0.622,0,1.295-0.252,1.813-0.688l1.132,1.243c-0.814,0.748-1.85,1.088-3.057,1.088
				c-2.198,0-3.723-1.495-3.723-3.753c0-2.258,1.48-3.797,3.627-3.797C300.197,467.853,301.611,469.385,301.618,471.62z
				 M296.504,470.954h3.175c-0.178-0.918-0.733-1.436-1.562-1.436C297.207,469.518,296.674,470.066,296.504,470.954z"/>
			<path id="XMLID_203_" style="fill:#1D262D;" d="M309.964,471.627c0,2.154-1.495,3.775-3.471,3.775
				c-0.962,0-1.643-0.378-2.109-0.933v3.708h-1.924v-10.133h1.887v0.792c0.466-0.585,1.155-0.984,2.139-0.984
				C308.469,467.853,309.964,469.474,309.964,471.627z M304.287,471.627c0,1.132,0.748,1.976,1.843,1.976
				c1.14,0,1.85-0.881,1.85-1.976c0-1.095-0.71-1.976-1.85-1.976C305.035,469.651,304.287,470.495,304.287,471.627z"/>
			<path id="XMLID_200_" style="fill:#1D262D;" d="M313.068,465.699c0,0.696-0.54,1.229-1.236,1.229
				c-0.696,0-1.229-0.533-1.229-1.229c0-0.696,0.533-1.243,1.229-1.243C312.527,464.455,313.068,465.003,313.068,465.699z
				 M312.809,475.217h-1.932v-7.172h1.932V475.217z"/>
			<path id="XMLID_198_" style="fill:#1D262D;" d="M316.032,470.599l2.701-2.554h2.368l-3.479,3.375l3.501,3.797h-2.376
				l-2.716-2.901v2.901H314.1v-10.658h1.932V470.599z"/>
		</g>
		<g>
			<path style="fill:#1D262D;" d="M184.412,475.152v-1.055c-0.527,0.718-1.391,1.23-2.387,1.23c-1.846,0-3.149-1.406-3.149-3.706
				c0-2.256,1.289-3.721,3.149-3.721c0.952,0,1.816,0.469,2.387,1.245v-3.765h1.099v9.77H184.412z M184.412,473.233v-3.208
				c-0.395-0.615-1.245-1.143-2.124-1.143c-1.421,0-2.27,1.172-2.27,2.739c0,1.567,0.85,2.724,2.27,2.724
				C183.168,474.346,184.017,473.849,184.412,473.233z"/>
			<path style="fill:#1D262D;" d="M186.932,471.607c0-2.051,1.465-3.706,3.486-3.706c2.139,0,3.398,1.67,3.398,3.794v0.279h-5.727
				c0.088,1.333,1.025,2.446,2.549,2.446c0.805,0,1.626-0.322,2.182-0.893l0.527,0.718c-0.703,0.703-1.655,1.084-2.812,1.084
				C188.44,475.328,186.932,473.819,186.932,471.607z M190.403,468.81c-1.509,0-2.256,1.274-2.314,2.358h4.643
				C192.718,470.113,192.015,468.81,190.403,468.81z"/>
			<path style="fill:#1D262D;" d="M194.607,474.215l0.571-0.791c0.469,0.542,1.362,1.011,2.329,1.011c1.084,0,1.67-0.513,1.67-1.216
				c0-1.714-4.38-0.659-4.38-3.281c0-1.098,0.952-2.036,2.636-2.036c1.201,0,2.051,0.454,2.622,1.026l-0.513,0.762
				c-0.424-0.513-1.201-0.894-2.109-0.894c-0.967,0-1.567,0.483-1.567,1.113c0,1.552,4.38,0.527,4.38,3.281
				c0,1.187-0.952,2.138-2.783,2.138C196.306,475.328,195.325,474.976,194.607,474.215z"/>
			<path style="fill:#1D262D;" d="M201.477,466.334c0-0.41,0.337-0.747,0.732-0.747c0.41,0,0.747,0.337,0.747,0.747
				c0,0.41-0.337,0.732-0.747,0.732C201.814,467.066,201.477,466.744,201.477,466.334z M201.667,475.152v-7.075h1.099v7.075H201.667
				z"/>
			<path style="fill:#1D262D;" d="M204.582,476.968l0.556-0.82c0.586,0.703,1.289,0.967,2.3,0.967c1.172,0,2.27-0.571,2.27-2.124
				v-1.011c-0.513,0.718-1.377,1.26-2.373,1.26c-1.845,0-3.149-1.377-3.149-3.662c0-2.27,1.289-3.677,3.149-3.677
				c0.952,0,1.802,0.469,2.373,1.245v-1.069h1.098v6.87c0,2.344-1.641,3.076-3.369,3.076
				C206.237,478.023,205.417,477.789,204.582,476.968z M209.709,473.116v-3.091c-0.381-0.615-1.23-1.143-2.109-1.143
				c-1.421,0-2.27,1.128-2.27,2.695c0,1.553,0.849,2.695,2.27,2.695C208.478,474.273,209.328,473.731,209.709,473.116z"/>
			<path style="fill:#1D262D;" d="M217.413,475.152v-4.629c0-1.245-0.63-1.641-1.582-1.641c-0.865,0-1.685,0.527-2.095,1.099v5.17
				h-1.099v-7.075h1.099v1.025c0.498-0.586,1.464-1.201,2.519-1.201c1.48,0,2.256,0.747,2.256,2.285v4.966H217.413z"/>
			<path style="fill:#1D262D;" d="M219.932,471.607c0-2.051,1.465-3.706,3.486-3.706c2.139,0,3.398,1.67,3.398,3.794v0.279h-5.727
				c0.088,1.333,1.025,2.446,2.549,2.446c0.806,0,1.626-0.322,2.183-0.893l0.527,0.718c-0.703,0.703-1.655,1.084-2.812,1.084
				C221.441,475.328,219.932,473.819,219.932,471.607z M223.404,468.81c-1.509,0-2.256,1.274-2.314,2.358h4.643
				C225.718,470.113,225.015,468.81,223.404,468.81z"/>
			<path style="fill:#1D262D;" d="M233.35,475.152v-1.055c-0.527,0.718-1.392,1.23-2.388,1.23c-1.846,0-3.149-1.406-3.149-3.706
				c0-2.256,1.289-3.721,3.149-3.721c0.952,0,1.817,0.469,2.388,1.245v-3.765h1.098v9.77H233.35z M233.35,473.233v-3.208
				c-0.396-0.615-1.245-1.143-2.124-1.143c-1.421,0-2.27,1.172-2.27,2.739c0,1.567,0.849,2.724,2.27,2.724
				C232.105,474.346,232.954,473.849,233.35,473.233z"/>
			<path style="fill:#1D262D;" d="M239.692,475.152v-9.77h1.098v3.765c0.572-0.776,1.421-1.245,2.388-1.245
				c1.845,0,3.149,1.465,3.149,3.721c0,2.299-1.304,3.706-3.149,3.706c-0.996,0-1.86-0.513-2.388-1.23v1.055H239.692z
				 M242.9,474.346c1.436,0,2.285-1.157,2.285-2.724c0-1.568-0.85-2.739-2.285-2.739c-0.864,0-1.728,0.527-2.109,1.143v3.208
				C241.171,473.849,242.036,474.346,242.9,474.346z"/>
			<path style="fill:#1D262D;" d="M247.528,476.924c0.161,0.073,0.425,0.117,0.601,0.117c0.483,0,0.805-0.161,1.055-0.747
				l0.469-1.069l-2.959-7.148h1.187l2.358,5.8l2.344-5.8h1.201l-3.545,8.51c-0.425,1.025-1.143,1.421-2.08,1.435
				c-0.234,0-0.601-0.044-0.805-0.103L247.528,476.924z"/>
		</g>
	</g>
</g>
</svg>
